<svg xmlns="http://www.w3.org/2000/svg" xmlns:xlink="http://www.w3.org/1999/xlink" width="500" zoomAndPan="magnify" viewBox="0 0 375 374.999991" height="500" preserveAspectRatio="xMidYMid meet" version="1.2"><defs><clipPath id="9415fa52b6"><path d="M 51.570312 142.417969 L 123.570312 142.417969 L 123.570312 242.917969 L 51.570312 242.917969 Z M 51.570312 142.417969 "/></clipPath></defs><g id="8fba2d6089"><g style="fill:#00477f;fill-opacity:1;"><g transform="translate(111.429394, 177.125858)"><path style="stroke:none" d="M 4.984375 -3.328125 C 2.460938 -6.078125 1.203125 -9.441406 1.203125 -13.421875 C 1.203125 -17.410156 2.460938 -20.785156 4.984375 -23.546875 C 7.503906 -26.316406 10.707031 -27.703125 14.59375 -27.703125 C 18.15625 -27.703125 21.09375 -26.582031 23.40625 -24.34375 L 23.40625 -26.921875 L 32.6875 -26.921875 L 32.6875 0 L 23.5 0 L 23.5 -3.046875 L 23.40625 -3.046875 C 21.09375 -0.492188 18.15625 0.78125 14.59375 0.78125 C 10.707031 0.78125 7.503906 -0.585938 4.984375 -3.328125 Z M 12.875 -18 C 11.675781 -16.8125 11.078125 -15.289062 11.078125 -13.4375 C 11.078125 -11.582031 11.648438 -10.066406 12.796875 -8.890625 C 13.953125 -7.722656 15.472656 -7.140625 17.359375 -7.140625 C 19.179688 -7.140625 20.675781 -7.734375 21.84375 -8.921875 C 23.019531 -10.109375 23.609375 -11.613281 23.609375 -13.4375 C 23.609375 -15.289062 23.003906 -16.8125 21.796875 -18 C 20.585938 -19.1875 19.109375 -19.78125 17.359375 -19.78125 C 15.578125 -19.78125 14.082031 -19.1875 12.875 -18 Z M 12.875 -18 "/></g></g><g style="fill:#00477f;fill-opacity:1;"><g transform="translate(142.801195, 177.125858)"><path style="stroke:none" d="M 4.71875 -26.921875 L 4.71875 -36.9375 L 14.015625 -36.9375 L 14.015625 -26.921875 L 19.671875 -26.921875 L 19.671875 -19.828125 L 14.015625 -19.828125 L 14.015625 -11.28125 C 14.015625 -8.800781 14.710938 -7.5625 16.109375 -7.5625 C 16.453125 -7.5625 16.816406 -7.628906 17.203125 -7.765625 C 17.585938 -7.898438 17.890625 -8.039062 18.109375 -8.1875 L 18.421875 -8.390625 L 20.71875 -0.890625 C 18.726562 0.222656 16.457031 0.78125 13.90625 0.78125 C 12.15625 0.78125 10.648438 0.476562 9.390625 -0.125 C 8.128906 -0.738281 7.175781 -1.5625 6.53125 -2.59375 C 5.882812 -3.625 5.421875 -4.707031 5.140625 -5.84375 C 4.859375 -6.988281 4.71875 -8.207031 4.71875 -9.5 L 4.71875 -19.828125 L 0.84375 -19.828125 L 0.84375 -26.921875 Z M 4.71875 -26.921875 "/></g></g><g style="fill:#00477f;fill-opacity:1;"><g transform="translate(159.063876, 177.125858)"><path style="stroke:none" d="M 3.140625 0 L 3.140625 -45.125 L 12.4375 -45.125 L 12.4375 -24.078125 L 12.546875 -24.078125 C 14.953125 -26.492188 17.519531 -27.703125 20.25 -27.703125 C 21.582031 -27.703125 22.90625 -27.523438 24.21875 -27.171875 C 25.53125 -26.828125 26.785156 -26.285156 27.984375 -25.546875 C 29.191406 -24.816406 30.171875 -23.773438 30.921875 -22.421875 C 31.679688 -21.078125 32.0625 -19.515625 32.0625 -17.734375 L 32.0625 0 L 22.765625 0 L 22.765625 -15.21875 C 22.765625 -16.613281 22.316406 -17.835938 21.421875 -18.890625 C 20.535156 -19.941406 19.375 -20.46875 17.9375 -20.46875 C 16.539062 -20.46875 15.273438 -19.921875 14.140625 -18.828125 C 13.003906 -17.742188 12.4375 -16.539062 12.4375 -15.21875 L 12.4375 0 Z M 3.140625 0 "/></g></g><g style="fill:#00477f;fill-opacity:1;"><g transform="translate(189.281504, 177.125858)"><path style="stroke:none" d="M 3.140625 0 L 3.140625 -26.921875 L 12.4375 -26.921875 L 12.4375 -24.078125 L 12.546875 -24.078125 C 14.953125 -26.492188 17.519531 -27.703125 20.25 -27.703125 C 22.207031 -27.703125 24.039062 -27.300781 25.75 -26.5 C 27.46875 -25.695312 28.765625 -24.453125 29.640625 -22.765625 C 32.367188 -26.054688 35.34375 -27.703125 38.5625 -27.703125 C 41.425781 -27.703125 43.890625 -26.894531 45.953125 -25.28125 C 48.023438 -23.675781 49.0625 -21.160156 49.0625 -17.734375 L 49.0625 0 L 39.765625 0 L 39.765625 -15.21875 C 39.765625 -16.644531 39.367188 -17.835938 38.578125 -18.796875 C 37.796875 -19.765625 36.617188 -20.25 35.046875 -20.25 C 33.679688 -20.25 32.640625 -19.835938 31.921875 -19.015625 C 31.210938 -18.191406 30.820312 -17.207031 30.75 -16.0625 L 30.75 0 L 21.453125 0 L 21.453125 -15.21875 C 21.453125 -16.644531 21.054688 -17.835938 20.265625 -18.796875 C 19.484375 -19.765625 18.304688 -20.25 16.734375 -20.25 C 15.304688 -20.25 14.234375 -19.800781 13.515625 -18.90625 C 12.796875 -18.019531 12.4375 -16.960938 12.4375 -15.734375 L 12.4375 0 Z M 3.140625 0 "/></g></g><g style="fill:#00477f;fill-opacity:1;"><g transform="translate(236.496893, 177.125858)"><path style="stroke:none" d="M 4.984375 -3.328125 C 2.460938 -6.078125 1.203125 -9.441406 1.203125 -13.421875 C 1.203125 -17.410156 2.460938 -20.785156 4.984375 -23.546875 C 7.503906 -26.316406 10.707031 -27.703125 14.59375 -27.703125 C 18.15625 -27.703125 21.09375 -26.582031 23.40625 -24.34375 L 23.40625 -26.921875 L 32.6875 -26.921875 L 32.6875 0 L 23.5 0 L 23.5 -3.046875 L 23.40625 -3.046875 C 21.09375 -0.492188 18.15625 0.78125 14.59375 0.78125 C 10.707031 0.78125 7.503906 -0.585938 4.984375 -3.328125 Z M 12.875 -18 C 11.675781 -16.8125 11.078125 -15.289062 11.078125 -13.4375 C 11.078125 -11.582031 11.648438 -10.066406 12.796875 -8.890625 C 13.953125 -7.722656 15.472656 -7.140625 17.359375 -7.140625 C 19.179688 -7.140625 20.675781 -7.734375 21.84375 -8.921875 C 23.019531 -10.109375 23.609375 -11.613281 23.609375 -13.4375 C 23.609375 -15.289062 23.003906 -16.8125 21.796875 -18 C 20.585938 -19.1875 19.109375 -19.78125 17.359375 -19.78125 C 15.578125 -19.78125 14.082031 -19.1875 12.875 -18 Z M 12.875 -18 "/></g></g><g style="fill:#00477f;fill-opacity:1;"><g transform="translate(267.868693, 177.125858)"><path style="stroke:none" d="M 3.140625 0 L 3.140625 -26.921875 L 12.4375 -26.921875 L 12.4375 -23.03125 L 12.546875 -23.03125 C 12.609375 -23.175781 12.71875 -23.351562 12.875 -23.5625 C 13.039062 -23.769531 13.382812 -24.132812 13.90625 -24.65625 C 14.425781 -25.1875 14.984375 -25.660156 15.578125 -26.078125 C 16.171875 -26.492188 16.941406 -26.867188 17.890625 -27.203125 C 18.835938 -27.535156 19.800781 -27.703125 20.78125 -27.703125 C 21.789062 -27.703125 22.785156 -27.5625 23.765625 -27.28125 C 24.742188 -27 25.460938 -26.71875 25.921875 -26.4375 L 26.65625 -26.03125 L 22.765625 -18.15625 C 21.617188 -19.132812 20.007812 -19.625 17.9375 -19.625 C 16.820312 -19.625 15.863281 -19.378906 15.0625 -18.890625 C 14.257812 -18.398438 13.691406 -17.804688 13.359375 -17.109375 C 13.023438 -16.410156 12.785156 -15.816406 12.640625 -15.328125 C 12.503906 -14.835938 12.4375 -14.453125 12.4375 -14.171875 L 12.4375 0 Z M 3.140625 0 "/></g></g><g style="fill:#00477f;fill-opacity:1;"><g transform="translate(289.534996, 177.125858)"><path style="stroke:none" d="M 33.890625 -26.921875 L 21.09375 -14.0625 L 35.15625 0 L 23.1875 0 L 12.4375 -10.75 L 12.4375 0 L 3.140625 0 L 3.140625 -45.125 L 12.4375 -45.125 L 12.4375 -17.53125 L 21.828125 -26.921875 Z M 33.890625 -26.921875 "/></g></g><g style="fill:#00477f;fill-opacity:1;"><g transform="translate(136.194648, 191.960438)"><path style="stroke:none" d="M 0.09375 0 L 3.15625 -7.703125 L 4.875 -7.703125 L 7.9375 0 L 6.0625 0 L 5.546875 -1.328125 L 2.484375 -1.328125 L 1.96875 0 Z M 2.9375 -2.703125 L 5.109375 -2.703125 L 4.015625 -5.515625 Z M 2.9375 -2.703125 "/></g></g><g style="fill:#00477f;fill-opacity:1;"><g transform="translate(148.013968, 191.960438)"><path style="stroke:none" d="M 0.921875 0 L 0.921875 -7.703125 L 3.96875 -7.703125 C 4.78125 -7.703125 5.488281 -7.539062 6.09375 -7.21875 C 6.707031 -6.894531 7.179688 -6.441406 7.515625 -5.859375 C 7.859375 -5.285156 8.03125 -4.613281 8.03125 -3.84375 C 8.03125 -3.070312 7.859375 -2.398438 7.515625 -1.828125 C 7.179688 -1.253906 6.707031 -0.804688 6.09375 -0.484375 C 5.488281 -0.160156 4.78125 0 3.96875 0 Z M 2.671875 -1.609375 L 3.9375 -1.609375 C 4.394531 -1.609375 4.796875 -1.703125 5.140625 -1.890625 C 5.484375 -2.078125 5.75 -2.335938 5.9375 -2.671875 C 6.132812 -3.003906 6.234375 -3.394531 6.234375 -3.84375 C 6.234375 -4.300781 6.132812 -4.695312 5.9375 -5.03125 C 5.75 -5.363281 5.476562 -5.625 5.125 -5.8125 C 4.78125 -6 4.378906 -6.09375 3.921875 -6.09375 L 2.671875 -6.09375 Z M 2.671875 -1.609375 "/></g></g><g style="fill:#00477f;fill-opacity:1;"><g transform="translate(160.294965, 191.960438)"><path style="stroke:none" d="M 3.0625 0 L 0.09375 -7.703125 L 1.984375 -7.703125 L 3 -4.96875 L 3.921875 -2.515625 L 5.859375 -7.703125 L 7.734375 -7.703125 L 4.78125 0 Z M 3.0625 0 "/></g></g><g style="fill:#00477f;fill-opacity:1;"><g transform="translate(171.916428, 191.960438)"><path style="stroke:none" d="M 0.921875 0 L 0.921875 -7.703125 L 2.671875 -7.703125 L 2.671875 0 Z M 0.921875 0 "/></g></g><g style="fill:#00477f;fill-opacity:1;"><g transform="translate(179.305889, 191.960438)"><path style="stroke:none" d="M 3.609375 0.15625 C 2.960938 0.15625 2.40625 0.0507812 1.9375 -0.15625 C 1.476562 -0.375 1.117188 -0.675781 0.859375 -1.0625 C 0.609375 -1.457031 0.484375 -1.921875 0.484375 -2.453125 L 2.203125 -2.453125 C 2.203125 -2.085938 2.328125 -1.800781 2.578125 -1.59375 C 2.828125 -1.382812 3.164062 -1.28125 3.59375 -1.28125 C 3.957031 -1.28125 4.242188 -1.351562 4.453125 -1.5 C 4.671875 -1.644531 4.78125 -1.84375 4.78125 -2.09375 C 4.78125 -2.375 4.648438 -2.597656 4.390625 -2.765625 C 4.140625 -2.929688 3.742188 -3.070312 3.203125 -3.1875 C 2.296875 -3.375 1.625 -3.660156 1.1875 -4.046875 C 0.757812 -4.441406 0.546875 -4.953125 0.546875 -5.578125 C 0.546875 -6.285156 0.800781 -6.84375 1.3125 -7.25 C 1.832031 -7.65625 2.535156 -7.859375 3.421875 -7.859375 C 4.023438 -7.859375 4.550781 -7.753906 5 -7.546875 C 5.445312 -7.335938 5.789062 -7.039062 6.03125 -6.65625 C 6.28125 -6.28125 6.40625 -5.832031 6.40625 -5.3125 L 4.734375 -5.3125 C 4.734375 -5.65625 4.617188 -5.925781 4.390625 -6.125 C 4.160156 -6.320312 3.84375 -6.421875 3.4375 -6.421875 C 3.070312 -6.421875 2.78125 -6.347656 2.5625 -6.203125 C 2.351562 -6.066406 2.25 -5.867188 2.25 -5.609375 C 2.25 -5.378906 2.363281 -5.179688 2.59375 -5.015625 C 2.832031 -4.859375 3.25 -4.707031 3.84375 -4.5625 C 4.800781 -4.332031 5.492188 -4.023438 5.921875 -3.640625 C 6.347656 -3.265625 6.5625 -2.773438 6.5625 -2.171875 C 6.5625 -1.441406 6.296875 -0.867188 5.765625 -0.453125 C 5.242188 -0.046875 4.523438 0.15625 3.609375 0.15625 Z M 3.609375 0.15625 "/></g></g><g style="fill:#00477f;fill-opacity:1;"><g transform="translate(190.146911, 191.960438)"><path style="stroke:none" d="M 4.578125 0.15625 C 3.773438 0.15625 3.0625 -0.015625 2.4375 -0.359375 C 1.820312 -0.703125 1.335938 -1.171875 0.984375 -1.765625 C 0.640625 -2.367188 0.46875 -3.0625 0.46875 -3.84375 C 0.46875 -4.632812 0.640625 -5.328125 0.984375 -5.921875 C 1.335938 -6.523438 1.820312 -7 2.4375 -7.34375 C 3.0625 -7.6875 3.773438 -7.859375 4.578125 -7.859375 C 5.378906 -7.859375 6.085938 -7.6875 6.703125 -7.34375 C 7.328125 -7 7.8125 -6.523438 8.15625 -5.921875 C 8.507812 -5.328125 8.6875 -4.632812 8.6875 -3.84375 C 8.6875 -3.0625 8.507812 -2.367188 8.15625 -1.765625 C 7.8125 -1.171875 7.328125 -0.703125 6.703125 -0.359375 C 6.085938 -0.015625 5.378906 0.15625 4.578125 0.15625 Z M 2.25 -3.84375 C 2.25 -3.382812 2.347656 -2.976562 2.546875 -2.625 C 2.742188 -2.269531 3.015625 -1.992188 3.359375 -1.796875 C 3.710938 -1.597656 4.117188 -1.5 4.578125 -1.5 C 5.035156 -1.5 5.4375 -1.597656 5.78125 -1.796875 C 6.132812 -1.992188 6.40625 -2.269531 6.59375 -2.625 C 6.789062 -2.976562 6.890625 -3.382812 6.890625 -3.84375 C 6.890625 -4.3125 6.789062 -4.71875 6.59375 -5.0625 C 6.40625 -5.414062 6.132812 -5.691406 5.78125 -5.890625 C 5.4375 -6.085938 5.035156 -6.1875 4.578125 -6.1875 C 4.117188 -6.1875 3.710938 -6.085938 3.359375 -5.890625 C 3.015625 -5.691406 2.742188 -5.414062 2.546875 -5.0625 C 2.347656 -4.71875 2.25 -4.3125 2.25 -3.84375 Z M 2.25 -3.84375 "/></g></g><g style="fill:#00477f;fill-opacity:1;"><g transform="translate(203.09844, 191.960438)"><path style="stroke:none" d="M 0.921875 0 L 0.921875 -7.703125 L 4.21875 -7.703125 C 4.800781 -7.703125 5.304688 -7.59375 5.734375 -7.375 C 6.171875 -7.164062 6.503906 -6.863281 6.734375 -6.46875 C 6.972656 -6.070312 7.09375 -5.597656 7.09375 -5.046875 C 7.09375 -4.484375 6.960938 -4 6.703125 -3.59375 C 6.453125 -3.1875 6.09375 -2.878906 5.625 -2.671875 L 7.234375 0 L 5.203125 0 L 3.828125 -2.390625 L 2.671875 -2.390625 L 2.671875 0 Z M 2.65625 -3.875 L 3.984375 -3.875 C 4.410156 -3.875 4.738281 -3.972656 4.96875 -4.171875 C 5.207031 -4.378906 5.328125 -4.664062 5.328125 -5.03125 C 5.328125 -5.40625 5.207031 -5.691406 4.96875 -5.890625 C 4.738281 -6.097656 4.410156 -6.203125 3.984375 -6.203125 L 2.65625 -6.203125 Z M 2.65625 -3.875 "/></g></g><g style="fill:#00477f;fill-opacity:1;"><g transform="translate(214.631967, 191.960438)"><path style="stroke:none" d="M 2.9375 0 L 2.9375 -2.6875 L 0.09375 -7.703125 L 2.09375 -7.703125 L 3.046875 -5.921875 L 3.8125 -4.515625 L 4.578125 -5.921875 L 5.515625 -7.703125 L 7.515625 -7.703125 L 4.6875 -2.71875 L 4.6875 0 Z M 2.9375 0 "/></g></g><g style="fill:#00477f;fill-opacity:1;"><g transform="translate(226.033589, 191.960438)"><path style="stroke:none" d=""/></g></g><g style="fill:#00477f;fill-opacity:1;"><g transform="translate(232.411759, 191.960438)"><path style="stroke:none" d="M 4.453125 0.15625 C 3.671875 0.15625 2.976562 -0.015625 2.375 -0.359375 C 1.78125 -0.703125 1.3125 -1.171875 0.96875 -1.765625 C 0.632812 -2.367188 0.46875 -3.0625 0.46875 -3.84375 C 0.46875 -4.632812 0.632812 -5.328125 0.96875 -5.921875 C 1.3125 -6.523438 1.78125 -7 2.375 -7.34375 C 2.976562 -7.6875 3.664062 -7.859375 4.4375 -7.859375 C 5.09375 -7.859375 5.691406 -7.734375 6.234375 -7.484375 C 6.773438 -7.234375 7.226562 -6.878906 7.59375 -6.421875 C 7.96875 -5.960938 8.226562 -5.425781 8.375 -4.8125 L 6.578125 -4.8125 C 6.429688 -5.238281 6.171875 -5.570312 5.796875 -5.8125 C 5.421875 -6.0625 4.988281 -6.1875 4.5 -6.1875 C 4.0625 -6.1875 3.671875 -6.085938 3.328125 -5.890625 C 2.992188 -5.691406 2.726562 -5.414062 2.53125 -5.0625 C 2.34375 -4.71875 2.25 -4.3125 2.25 -3.84375 C 2.25 -3.382812 2.34375 -2.976562 2.53125 -2.625 C 2.726562 -2.269531 2.992188 -1.992188 3.328125 -1.796875 C 3.671875 -1.597656 4.054688 -1.5 4.484375 -1.5 C 4.992188 -1.5 5.4375 -1.628906 5.8125 -1.890625 C 6.195312 -2.148438 6.472656 -2.503906 6.640625 -2.953125 L 8.4375 -2.953125 C 8.3125 -2.328125 8.0625 -1.78125 7.6875 -1.3125 C 7.3125 -0.84375 6.847656 -0.476562 6.296875 -0.21875 C 5.742188 0.03125 5.128906 0.15625 4.453125 0.15625 Z M 4.453125 0.15625 "/></g></g><g style="fill:#00477f;fill-opacity:1;"><g transform="translate(245.077483, 191.960438)"><path style="stroke:none" d="M 4.578125 0.15625 C 3.773438 0.15625 3.0625 -0.015625 2.4375 -0.359375 C 1.820312 -0.703125 1.335938 -1.171875 0.984375 -1.765625 C 0.640625 -2.367188 0.46875 -3.0625 0.46875 -3.84375 C 0.46875 -4.632812 0.640625 -5.328125 0.984375 -5.921875 C 1.335938 -6.523438 1.820312 -7 2.4375 -7.34375 C 3.0625 -7.6875 3.773438 -7.859375 4.578125 -7.859375 C 5.378906 -7.859375 6.085938 -7.6875 6.703125 -7.34375 C 7.328125 -7 7.8125 -6.523438 8.15625 -5.921875 C 8.507812 -5.328125 8.6875 -4.632812 8.6875 -3.84375 C 8.6875 -3.0625 8.507812 -2.367188 8.15625 -1.765625 C 7.8125 -1.171875 7.328125 -0.703125 6.703125 -0.359375 C 6.085938 -0.015625 5.378906 0.15625 4.578125 0.15625 Z M 2.25 -3.84375 C 2.25 -3.382812 2.347656 -2.976562 2.546875 -2.625 C 2.742188 -2.269531 3.015625 -1.992188 3.359375 -1.796875 C 3.710938 -1.597656 4.117188 -1.5 4.578125 -1.5 C 5.035156 -1.5 5.4375 -1.597656 5.78125 -1.796875 C 6.132812 -1.992188 6.40625 -2.269531 6.59375 -2.625 C 6.789062 -2.976562 6.890625 -3.382812 6.890625 -3.84375 C 6.890625 -4.3125 6.789062 -4.71875 6.59375 -5.0625 C 6.40625 -5.414062 6.132812 -5.691406 5.78125 -5.890625 C 5.4375 -6.085938 5.035156 -6.1875 4.578125 -6.1875 C 4.117188 -6.1875 3.710938 -6.085938 3.359375 -5.890625 C 3.015625 -5.691406 2.742188 -5.414062 2.546875 -5.0625 C 2.347656 -4.71875 2.25 -4.3125 2.25 -3.84375 Z M 2.25 -3.84375 "/></g></g><g style="fill:#00477f;fill-opacity:1;"><g transform="translate(258.029013, 191.960438)"><path style="stroke:none" d="M 1.46875 0.125 C 1.164062 0.125 0.921875 0.03125 0.734375 -0.15625 C 0.546875 -0.34375 0.453125 -0.582031 0.453125 -0.875 C 0.453125 -1.15625 0.546875 -1.390625 0.734375 -1.578125 C 0.921875 -1.773438 1.164062 -1.875 1.46875 -1.875 C 1.769531 -1.875 2.015625 -1.773438 2.203125 -1.578125 C 2.398438 -1.390625 2.5 -1.15625 2.5 -0.875 C 2.5 -0.582031 2.398438 -0.34375 2.203125 -0.15625 C 2.015625 0.03125 1.769531 0.125 1.46875 0.125 Z M 1.46875 0.125 "/></g></g><g style="fill:#00477f;fill-opacity:1;"><g transform="translate(264.758939, 191.960438)"><path style="stroke:none" d=""/></g></g><g style="fill:#00477f;fill-opacity:1;"><g transform="translate(271.137109, 191.960438)"><path style="stroke:none" d="M 0.921875 0 L 0.921875 -7.703125 L 2.671875 -7.703125 L 2.671875 -1.640625 L 6.03125 -1.640625 L 6.03125 0 Z M 0.921875 0 "/></g></g><g style="fill:#00477f;fill-opacity:1;"><g transform="translate(281.26363, 191.960438)"><path style="stroke:none" d="M 2.765625 0 L 2.765625 -6.0625 L 0.328125 -6.0625 L 0.328125 -7.703125 L 6.96875 -7.703125 L 6.96875 -6.0625 L 4.515625 -6.0625 L 4.515625 0 Z M 2.765625 0 "/></g></g><g style="fill:#00477f;fill-opacity:1;"><g transform="translate(292.346477, 191.960438)"><path style="stroke:none" d="M 0.921875 0 L 0.921875 -7.703125 L 3.96875 -7.703125 C 4.78125 -7.703125 5.488281 -7.539062 6.09375 -7.21875 C 6.707031 -6.894531 7.179688 -6.441406 7.515625 -5.859375 C 7.859375 -5.285156 8.03125 -4.613281 8.03125 -3.84375 C 8.03125 -3.070312 7.859375 -2.398438 7.515625 -1.828125 C 7.179688 -1.253906 6.707031 -0.804688 6.09375 -0.484375 C 5.488281 -0.160156 4.78125 0 3.96875 0 Z M 2.671875 -1.609375 L 3.9375 -1.609375 C 4.394531 -1.609375 4.796875 -1.703125 5.140625 -1.890625 C 5.484375 -2.078125 5.75 -2.335938 5.9375 -2.671875 C 6.132812 -3.003906 6.234375 -3.394531 6.234375 -3.84375 C 6.234375 -4.300781 6.132812 -4.695312 5.9375 -5.03125 C 5.75 -5.363281 5.476562 -5.625 5.125 -5.8125 C 4.78125 -6 4.378906 -6.09375 3.921875 -6.09375 L 2.671875 -6.09375 Z M 2.671875 -1.609375 "/></g></g><g clip-rule="nonzero" clip-path="url(#9415fa52b6)"><path style=" stroke:none;fill-rule:nonzero;fill:#ff5757;fill-opacity:1;" d="M 123.519531 170.976562 C 123.5625 186.800781 110.699219 199.6875 94.886719 199.6875 L 79.285156 199.6875 C 72.523438 199.6875 67.039062 205.167969 67.039062 211.933594 L 67.039062 227.699219 L 52.132812 242.601562 L 52.132812 215.789062 C 52.132812 198.664062 66.015625 184.78125 83.144531 184.78125 L 94.890625 184.78125 C 102.4375 184.78125 108.585938 178.652344 108.617188 171.105469 C 108.648438 163.527344 102.382812 157.320312 94.796875 157.320312 L 66.484375 157.320312 L 51.578125 142.417969 L 94.75 142.417969 C 110.554688 142.417969 123.480469 155.171875 123.519531 170.976562 Z M 123.519531 170.976562 "/></g></g></svg>